<?xml version="1.0" encoding="UTF-8" standalone="no"?>
<!DOCTYPE svg PUBLIC "-//W3C//DTD SVG 1.1//EN" "http://www.w3.org/Graphics/SVG/1.1/DTD/svg11.dtd">
<!-- Создано Microsoft Visio, экспорт SVG My profile page.svg Page-1 -->
<svg xmlns="http://www.w3.org/2000/svg" xmlns:xlink="http://www.w3.org/1999/xlink" xmlns:ev="http://www.w3.org/2001/xml-events"
		xmlns:v="http://schemas.microsoft.com/visio/2003/SVGExtensions/" width="11.6929in" height="8.26772in"
		viewBox="0 0 841.89 595.276" xml:space="preserve" color-interpolation-filters="sRGB" class="st9">
	<v:documentProperties v:langID="1049" v:metric="true" v:viewMarkup="false">
		<v:userDefs>
			<v:ud v:nameU="msvSubprocessMaster" v:prompt="" v:val="VT4(Rectangle)"/>
			<v:ud v:nameU="msvNoAutoConnect" v:val="VT0(1):26"/>
		</v:userDefs>
	</v:documentProperties>

	<style type="text/css">
	<![CDATA[
		.st1 {visibility:visible}
		.st2 {fill:#5b9bd5;fill-opacity:0.22;filter:url(#filter_2);stroke:#5b9bd5;stroke-opacity:0.22}
		.st3 {fill:#5b9bd5;stroke:#c7c8c8;stroke-width:0.25}
		.st4 {fill:#feffff;font-family:Calibri;font-size:1.66667em}
		.st5 {font-size:1em}
		.st6 {fill:#ffffff;stroke:#c7c8c8;stroke-width:0.25}
		.st7 {fill:#5b9bd5;font-family:Calibri;font-size:1.66667em}
		.st8 {fill:none;stroke:none;stroke-width:0.25}
		.st9 {fill:none;fill-rule:evenodd;font-size:12px;overflow:visible;stroke-linecap:square;stroke-miterlimit:3}
	]]>
	</style>

	<defs id="Filters">
		<filter id="filter_2">
			<feGaussianBlur stdDeviation="2"/>
		</filter>
	</defs>
	<g v:mID="0" v:index="1" v:groupContext="foregroundPage">
		<v:userDefs>
			<v:ud v:nameU="msvThemeOrder" v:val="VT0(0):26"/>
		</v:userDefs>
		<title>Страница-1</title>
		<v:pageProperties v:drawingScale="0.0393701" v:pageScale="0.0393701" v:drawingUnits="24" v:shadowOffsetX="8.50394"
				v:shadowOffsetY="-8.50394"/>
		<g id="shape3-1" v:mID="3" v:groupContext="shape" transform="translate(136.063,-18)">
			<title>Прямоугольник.3</title>
			<v:userDefs>
				<v:ud v:nameU="visVersion" v:val="VT0(15):26"/>
			</v:userDefs>
			<g id="shadow3-2" v:groupContext="shadow" v:shadowOffsetX="0.345598" v:shadowOffsetY="-1.97279" v:shadowType="1"
					transform="matrix(1,0,0,1,0.345598,1.97279)" class="st1">
				<rect x="0" y="79.4055" width="687.827" height="515.87" class="st2"/>
			</g>
			<rect x="0" y="79.4055" width="687.827" height="515.87" class="st3"/>
		</g>
		<g id="shape1-6" v:mID="1" v:groupContext="shape" transform="translate(18,-537.626)">
			<title>Прямоугольник</title>
			<desc>Верхний навбар</desc>
			<v:userDefs>
				<v:ud v:nameU="visVersion" v:val="VT0(15):26"/>
			</v:userDefs>
			<v:textBlock v:margins="rect(4,4,4,4)" v:tabSpace="42.5197"/>
			<v:textRect cx="402.945" cy="570.703" width="805.89" height="49.1457"/>
			<g id="shadow1-7" v:groupContext="shadow" v:shadowOffsetX="0.345598" v:shadowOffsetY="-1.97279" v:shadowType="1"
					transform="matrix(1,0,0,1,0.345598,1.97279)" class="st1">
				<rect x="0" y="546.13" width="805.89" height="49.1457" class="st2"/>
			</g>
			<rect x="0" y="546.13" width="805.89" height="49.1457" class="st3"/>
			<text x="334.23" y="576.7" class="st4" v:langID="1049"><v:paragraph v:horizAlign="1"/><v:tabList/>Верхний навбар</text>		</g>
		<g id="shape2-12" v:mID="2" v:groupContext="shape" transform="translate(18,-18)">
			<title>Прямоугольник.2</title>
			<desc>Левый навбар</desc>
			<v:userDefs>
				<v:ud v:nameU="visVersion" v:val="VT0(15):26"/>
			</v:userDefs>
			<v:textBlock v:margins="rect(4,4,4,4)" v:tabSpace="42.5197"/>
			<v:textRect cx="56.6929" cy="337.819" width="113.39" height="514.913"/>
			<g id="shadow2-13" v:groupContext="shadow" v:shadowOffsetX="0.345598" v:shadowOffsetY="-1.97279" v:shadowType="1"
					transform="matrix(1,0,0,1,0.345598,1.97279)" class="st1">
				<rect x="0" y="80.3622" width="113.386" height="514.913" class="st2"/>
			</g>
			<rect x="0" y="80.3622" width="113.386" height="514.913" class="st3"/>
			<text x="28.75" y="331.82" class="st4" v:langID="1049"><v:paragraph v:horizAlign="1"/><v:tabList/>Левый <tspan x="26.4"
						dy="1.2em" class="st5">навбар</tspan></text>		</g>
		<g id="shape8-19" v:mID="8" v:groupContext="shape" transform="translate(382.677,-382.677)">
			<title>Скругленный прямоугольник.8</title>
			<desc>Vacation</desc>
			<v:userDefs>
				<v:ud v:nameU="CTypeTopLeftSnip" v:prompt="" v:val="VT0(0):5"/>
				<v:ud v:nameU="CTypeTopRightSnip" v:prompt="" v:val="VT0(0):5"/>
				<v:ud v:nameU="CTypeBotLeftSnip" v:prompt="" v:val="VT0(0):5"/>
				<v:ud v:nameU="CTypeBotRightSnip" v:prompt="" v:val="VT0(0):5"/>
				<v:ud v:nameU="CornerLockHoriz" v:prompt="" v:val="VT0(1):5"/>
				<v:ud v:nameU="CornerLockVert" v:prompt="" v:val="VT0(1):5"/>
				<v:ud v:nameU="CornerLockDiag" v:prompt="" v:val="VT0(0):5"/>
				<v:ud v:nameU="TopLeftOffset" v:prompt="" v:val="VT0(0.15748031496063):24"/>
				<v:ud v:nameU="TopRightOffset" v:prompt="" v:val="VT0(0.15748031496063):24"/>
				<v:ud v:nameU="BotLeftOffset" v:prompt="" v:val="VT0(0.15748031496063):24"/>
				<v:ud v:nameU="BotRightOffset" v:prompt="" v:val="VT0(0.15748031496063):24"/>
				<v:ud v:nameU="visVersion" v:prompt="" v:val="VT0(15):26"/>
				<v:ud v:nameU="TopLeftOffset" v:prompt="" v:val="VT0(0.19685039370079):1"/>
				<v:ud v:nameU="TopRightOffset" v:prompt="" v:val="VT0(0.19685039370079):1"/>
				<v:ud v:nameU="BotLeftOffset" v:prompt="" v:val="VT0(0.19685039370079):1"/>
				<v:ud v:nameU="BotRightOffset" v:prompt="" v:val="VT0(0.19685039370079):1"/>
			</v:userDefs>
			<v:textBlock v:margins="rect(4,4,4,4)" v:tabSpace="42.5197"/>
			<v:textRect cx="212.598" cy="531.496" width="425.2" height="127.559"/>
			<g id="shadow8-20" v:groupContext="shadow" v:shadowOffsetX="0.345598" v:shadowOffsetY="-1.97279" v:shadowType="1"
					transform="matrix(1,0,0,1,0.345598,1.97279)" class="st1">
				<path d="M14.17 595.28 L411.02 595.28 A14.173 14.173 -180 0 0 425.2 581.1 L425.2 481.89 A14.173 14.173 -180 0 0 411.02
							 467.72 L14.17 467.72 A14.173 14.173 -180 0 0 0 481.89 L0 581.1 A14.173 14.173 -180 0 0 14.17 595.28
							 Z" class="st2"/>
			</g>
			<path d="M14.17 595.28 L411.02 595.28 A14.173 14.173 -180 0 0 425.2 581.1 L425.2 481.89 A14.173 14.173 -180 0 0 411.02
						 467.72 L14.17 467.72 A14.173 14.173 -180 0 0 0 481.89 L0 581.1 A14.173 14.173 -180 0 0 14.17 595.28 Z"
					class="st6"/>
			<text x="176.94" y="537.5" class="st7" v:langID="1033"><v:paragraph v:horizAlign="1"/><v:tabList/>Vacation</text>		</g>
		<g id="shape9-25" v:mID="9" v:groupContext="shape" transform="translate(382.677,-35.4331)">
			<title>Скругленный прямоугольник.9</title>
			<desc>My vacations</desc>
			<v:userDefs>
				<v:ud v:nameU="CTypeTopLeftSnip" v:prompt="" v:val="VT0(0):5"/>
				<v:ud v:nameU="CTypeTopRightSnip" v:prompt="" v:val="VT0(0):5"/>
				<v:ud v:nameU="CTypeBotLeftSnip" v:prompt="" v:val="VT0(0):5"/>
				<v:ud v:nameU="CTypeBotRightSnip" v:prompt="" v:val="VT0(0):5"/>
				<v:ud v:nameU="CornerLockHoriz" v:prompt="" v:val="VT0(1):5"/>
				<v:ud v:nameU="CornerLockVert" v:prompt="" v:val="VT0(1):5"/>
				<v:ud v:nameU="CornerLockDiag" v:prompt="" v:val="VT0(0):5"/>
				<v:ud v:nameU="TopLeftOffset" v:prompt="" v:val="VT0(0.15748031496063):24"/>
				<v:ud v:nameU="TopRightOffset" v:prompt="" v:val="VT0(0.15748031496063):24"/>
				<v:ud v:nameU="BotLeftOffset" v:prompt="" v:val="VT0(0.15748031496063):24"/>
				<v:ud v:nameU="BotRightOffset" v:prompt="" v:val="VT0(0.15748031496063):24"/>
				<v:ud v:nameU="visVersion" v:prompt="" v:val="VT0(15):26"/>
				<v:ud v:nameU="TopLeftOffset" v:prompt="" v:val="VT0(0.19685039370079):1"/>
				<v:ud v:nameU="TopRightOffset" v:prompt="" v:val="VT0(0.19685039370079):1"/>
				<v:ud v:nameU="BotLeftOffset" v:prompt="" v:val="VT0(0.19685039370079):1"/>
				<v:ud v:nameU="BotRightOffset" v:prompt="" v:val="VT0(0.19685039370079):1"/>
			</v:userDefs>
			<v:textBlock v:margins="rect(4,4,4,4)" v:tabSpace="42.5197"/>
			<v:textRect cx="212.598" cy="430.862" width="425.2" height="328.828"/>
			<g id="shadow9-26" v:groupContext="shadow" v:shadowOffsetX="0.345598" v:shadowOffsetY="-1.97279" v:shadowType="1"
					transform="matrix(1,0,0,1,0.345598,1.97279)" class="st1">
				<path d="M14.17 595.28 L411.02 595.28 A14.173 14.173 -180 0 0 425.2 581.1 L425.2 280.62 A14.173 14.173 -180 0 0 411.02
							 266.45 L14.17 266.45 A14.173 14.173 -180 0 0 0 280.62 L0 581.1 A14.173 14.173 -180 0 0 14.17 595.28
							 Z" class="st2"/>
			</g>
			<path d="M14.17 595.28 L411.02 595.28 A14.173 14.173 -180 0 0 425.2 581.1 L425.2 280.62 A14.173 14.173 -180 0 0 411.02
						 266.45 L14.17 266.45 A14.173 14.173 -180 0 0 0 280.62 L0 581.1 A14.173 14.173 -180 0 0 14.17 595.28 Z"
					class="st6"/>
			<text x="158.85" y="436.86" class="st7" v:langID="1033"><v:paragraph v:horizAlign="1"/><v:tabList/>My vacations</text>		</g>
		<g id="shape10-31" v:mID="10" v:groupContext="shape" transform="translate(347.244,-510.236)">
			<title>Лист.10</title>
			<desc>Profile</desc>
			<v:textBlock v:margins="rect(4,4,4,4)" v:tabSpace="42.5197"/>
			<v:textRect cx="106.299" cy="583.937" width="212.6" height="22.6772"/>
			<rect x="0" y="572.598" width="212.598" height="22.6772" class="st8"/>
			<text x="79.76" y="589.94" class="st4" v:langID="1033"><v:paragraph v:horizAlign="1"/><v:tabList/>Profile</text>		</g>
		<g id="shape7-34" v:mID="7" v:groupContext="shape" transform="translate(155.906,-35.4331)">
			<title>Скругленный прямоугольник</title>
			<desc>My profile</desc>
			<v:userDefs>
				<v:ud v:nameU="CTypeTopLeftSnip" v:prompt="" v:val="VT0(0):5"/>
				<v:ud v:nameU="CTypeTopRightSnip" v:prompt="" v:val="VT0(0):5"/>
				<v:ud v:nameU="CTypeBotLeftSnip" v:prompt="" v:val="VT0(0):5"/>
				<v:ud v:nameU="CTypeBotRightSnip" v:prompt="" v:val="VT0(0):5"/>
				<v:ud v:nameU="CornerLockHoriz" v:prompt="" v:val="VT0(1):5"/>
				<v:ud v:nameU="CornerLockVert" v:prompt="" v:val="VT0(1):5"/>
				<v:ud v:nameU="CornerLockDiag" v:prompt="" v:val="VT0(0):5"/>
				<v:ud v:nameU="TopLeftOffset" v:prompt="" v:val="VT0(0.15748031496063):24"/>
				<v:ud v:nameU="TopRightOffset" v:prompt="" v:val="VT0(0.15748031496063):24"/>
				<v:ud v:nameU="BotLeftOffset" v:prompt="" v:val="VT0(0.15748031496063):24"/>
				<v:ud v:nameU="BotRightOffset" v:prompt="" v:val="VT0(0.15748031496063):24"/>
				<v:ud v:nameU="visVersion" v:prompt="" v:val="VT0(15):26"/>
				<v:ud v:nameU="TopLeftOffset" v:prompt="" v:val="VT0(0.29527559055118):1"/>
				<v:ud v:nameU="TopRightOffset" v:prompt="" v:val="VT0(0.29527559055118):1"/>
				<v:ud v:nameU="BotLeftOffset" v:prompt="" v:val="VT0(0.29527559055118):1"/>
				<v:ud v:nameU="BotRightOffset" v:prompt="" v:val="VT0(0.29527559055118):1"/>
			</v:userDefs>
			<v:textBlock v:margins="rect(4,4,4,4)" v:tabSpace="42.5197"/>
			<v:textRect cx="106.299" cy="357.874" width="212.6" height="474.803"/>
			<g id="shadow7-35" v:groupContext="shadow" v:shadowOffsetX="0.345598" v:shadowOffsetY="-1.97279" v:shadowType="1"
					transform="matrix(1,0,0,1,0.345598,1.97279)" class="st1">
				<path d="M21.26 595.28 L191.34 595.28 A21.2595 21.2595 -180 0 0 212.6 574.02 L212.6 141.73 A21.2595 21.2595 -180
							 0 0 191.34 120.47 L21.26 120.47 A21.2595 21.2595 -180 0 0 -0 141.73 L0 574.02 A21.2595 21.2595 -180
							 0 0 21.26 595.28 Z" class="st2"/>
			</g>
			<path d="M21.26 595.28 L191.34 595.28 A21.2595 21.2595 -180 0 0 212.6 574.02 L212.6 141.73 A21.2595 21.2595 -180 0 0
						 191.34 120.47 L21.26 120.47 A21.2595 21.2595 -180 0 0 -0 141.73 L0 574.02 A21.2595 21.2595 -180 0 0 21.26
						 595.28 Z" class="st6"/>
			<text x="64.33" y="363.87" class="st7" v:langID="1033"><v:paragraph v:horizAlign="1"/><v:tabList/>My profile</text>		</g>
	</g>
</svg>
