<?xml version="1.0" encoding="UTF-8" standalone="no"?>
<!DOCTYPE svg PUBLIC "-//W3C//DTD SVG 1.1//EN" "http://www.w3.org/Graphics/SVG/1.1/DTD/svg11.dtd">
<!-- Создано Microsoft Visio, экспорт SVG Structure.svg Page-1 -->
<svg xmlns="http://www.w3.org/2000/svg" xmlns:xlink="http://www.w3.org/1999/xlink" xmlns:ev="http://www.w3.org/2001/xml-events"
		xmlns:v="http://schemas.microsoft.com/visio/2003/SVGExtensions/" width="11.6929in" height="8.26772in"
		viewBox="0 0 841.89 595.276" xml:space="preserve" color-interpolation-filters="sRGB" class="st8">
	<v:documentProperties v:langID="1049" v:metric="true" v:viewMarkup="false">
		<v:userDefs>
			<v:ud v:nameU="msvSubprocessMaster" v:prompt="" v:val="VT4(Rectangle)"/>
			<v:ud v:nameU="msvNoAutoConnect" v:val="VT0(1):26"/>
		</v:userDefs>
	</v:documentProperties>

	<style type="text/css">
	<![CDATA[
		.st1 {visibility:visible}
		.st2 {fill:#5b9bd5;fill-opacity:0.22;filter:url(#filter_2);stroke:#5b9bd5;stroke-opacity:0.22}
		.st3 {fill:#5b9bd5;stroke:#c7c8c8;stroke-width:0.25}
		.st4 {fill:#feffff;font-family:Calibri;font-size:0.833336em}
		.st5 {font-size:1em}
		.st6 {marker-end:url(#mrkr4-75);stroke:#5b9bd5;stroke-linecap:round;stroke-linejoin:round;stroke-width:1}
		.st7 {fill:#5b9bd5;fill-opacity:1;stroke:#5b9bd5;stroke-opacity:1;stroke-width:0.28409090909091}
		.st8 {fill:none;fill-rule:evenodd;font-size:12px;overflow:visible;stroke-linecap:square;stroke-miterlimit:3}
	]]>
	</style>

	<defs id="Markers">
		<g id="lend4">
			<path d="M 2 1 L 0 0 L 2 -1 L 2 1 " style="stroke:none"/>
		</g>
		<marker id="mrkr4-75" class="st7" v:arrowType="4" v:arrowSize="2" v:setback="7.04" refX="-7.04" orient="auto"
				markerUnits="strokeWidth" overflow="visible">
			<use xlink:href="#lend4" transform="scale(-3.52,-3.52) "/>
		</marker>
	</defs>
	<defs id="Filters">
		<filter id="filter_2">
			<feGaussianBlur stdDeviation="2"/>
		</filter>
	</defs>
	<g v:mID="0" v:index="1" v:groupContext="foregroundPage">
		<v:userDefs>
			<v:ud v:nameU="msvThemeOrder" v:val="VT0(0):26"/>
		</v:userDefs>
		<title>Страница-1</title>
		<v:pageProperties v:drawingScale="0.0393701" v:pageScale="0.0393701" v:drawingUnits="24" v:shadowOffsetX="8.50394"
				v:shadowOffsetY="-8.50394"/>
		<v:layer v:name="Соединительная линия" v:index="0"/>
		<g id="shape1-1" v:mID="1" v:groupContext="shape" transform="translate(18,-537.971)">
			<title>Скругленный прямоугольник</title>
			<desc>App</desc>
			<v:userDefs>
				<v:ud v:nameU="CTypeTopLeftSnip" v:prompt="" v:val="VT0(0):5"/>
				<v:ud v:nameU="CTypeTopRightSnip" v:prompt="" v:val="VT0(0):5"/>
				<v:ud v:nameU="CTypeBotLeftSnip" v:prompt="" v:val="VT0(0):5"/>
				<v:ud v:nameU="CTypeBotRightSnip" v:prompt="" v:val="VT0(0):5"/>
				<v:ud v:nameU="CornerLockHoriz" v:prompt="" v:val="VT0(1):5"/>
				<v:ud v:nameU="CornerLockVert" v:prompt="" v:val="VT0(1):5"/>
				<v:ud v:nameU="CornerLockDiag" v:prompt="" v:val="VT0(0):5"/>
				<v:ud v:nameU="TopLeftOffset" v:prompt="" v:val="VT0(0.15748031496063):24"/>
				<v:ud v:nameU="TopRightOffset" v:prompt="" v:val="VT0(0.15748031496063):24"/>
				<v:ud v:nameU="BotLeftOffset" v:prompt="" v:val="VT0(0.15748031496063):24"/>
				<v:ud v:nameU="BotRightOffset" v:prompt="" v:val="VT0(0.15748031496063):24"/>
				<v:ud v:nameU="visVersion" v:prompt="" v:val="VT0(15):26"/>
				<v:ud v:nameU="TopLeftOffset" v:prompt="" v:val="VT0(0.072786090334284):1"/>
				<v:ud v:nameU="TopRightOffset" v:prompt="" v:val="VT0(0.072786090334284):1"/>
				<v:ud v:nameU="BotLeftOffset" v:prompt="" v:val="VT0(0.072786090334284):1"/>
				<v:ud v:nameU="BotRightOffset" v:prompt="" v:val="VT0(0.072786090334284):1"/>
			</v:userDefs>
			<v:textBlock v:margins="rect(4,4,4,4)" v:tabSpace="42.5197"/>
			<v:textRect cx="26.203" cy="575.623" width="52.41" height="39.3045"/>
			<g id="shadow1-2" v:groupContext="shadow" v:shadowOffsetX="0.345598" v:shadowOffsetY="-1.97279" v:shadowType="1"
					transform="matrix(1,0,0,1,0.345598,1.97279)" class="st1">
				<path d="M5.24 595.28 L47.17 595.28 A5.24051 5.24051 -180 0 0 52.41 590.03 L52.41 561.21 A5.24051 5.24051 -180 0
							 0 47.17 555.97 L5.24 555.97 A5.24051 5.24051 -180 0 0 0 561.21 L0 590.03 A5.24051 5.24051 -180 0 0 5.24
							 595.28 Z" class="st2"/>
			</g>
			<path d="M5.24 595.28 L47.17 595.28 A5.24051 5.24051 -180 0 0 52.41 590.03 L52.41 561.21 A5.24051 5.24051 -180 0 0 47.17
						 555.97 L5.24 555.97 A5.24051 5.24051 -180 0 0 0 561.21 L0 590.03 A5.24051 5.24051 -180 0 0 5.24 595.28 Z"
					class="st3"/>
			<text x="18.06" y="578.62" class="st4" v:langID="1033"><v:paragraph v:horizAlign="1"/><v:tabList/>App</text>		</g>
		<g id="shape2-7" v:mID="2" v:groupContext="shape" transform="translate(87.0252,-491.631)">
			<title>Скругленный прямоугольник.2</title>
			<desc>Auth</desc>
			<v:userDefs>
				<v:ud v:nameU="CTypeTopLeftSnip" v:prompt="" v:val="VT0(0):5"/>
				<v:ud v:nameU="CTypeTopRightSnip" v:prompt="" v:val="VT0(0):5"/>
				<v:ud v:nameU="CTypeBotLeftSnip" v:prompt="" v:val="VT0(0):5"/>
				<v:ud v:nameU="CTypeBotRightSnip" v:prompt="" v:val="VT0(0):5"/>
				<v:ud v:nameU="CornerLockHoriz" v:prompt="" v:val="VT0(1):5"/>
				<v:ud v:nameU="CornerLockVert" v:prompt="" v:val="VT0(1):5"/>
				<v:ud v:nameU="CornerLockDiag" v:prompt="" v:val="VT0(0):5"/>
				<v:ud v:nameU="TopLeftOffset" v:prompt="" v:val="VT0(0.15748031496063):24"/>
				<v:ud v:nameU="TopRightOffset" v:prompt="" v:val="VT0(0.15748031496063):24"/>
				<v:ud v:nameU="BotLeftOffset" v:prompt="" v:val="VT0(0.15748031496063):24"/>
				<v:ud v:nameU="BotRightOffset" v:prompt="" v:val="VT0(0.15748031496063):24"/>
				<v:ud v:nameU="visVersion" v:prompt="" v:val="VT0(15):26"/>
				<v:ud v:nameU="TopLeftOffset" v:prompt="" v:val="VT0(0.072786090334285):1"/>
				<v:ud v:nameU="TopRightOffset" v:prompt="" v:val="VT0(0.072786090334285):1"/>
				<v:ud v:nameU="BotLeftOffset" v:prompt="" v:val="VT0(0.072786090334285):1"/>
				<v:ud v:nameU="BotRightOffset" v:prompt="" v:val="VT0(0.072786090334285):1"/>
			</v:userDefs>
			<v:textBlock v:margins="rect(4,4,4,4)" v:tabSpace="42.5197"/>
			<v:textRect cx="26.203" cy="575.623" width="52.41" height="39.3045"/>
			<g id="shadow2-8" v:groupContext="shadow" v:shadowOffsetX="0.345598" v:shadowOffsetY="-1.97279" v:shadowType="1"
					transform="matrix(1,0,0,1,0.345598,1.97279)" class="st1">
				<path d="M5.24 595.28 L47.17 595.28 A5.24051 5.24051 -180 0 0 52.41 590.03 L52.41 561.21 A5.24051 5.24051 -180 0
							 0 47.17 555.97 L5.24 555.97 A5.24051 5.24051 -180 0 0 0 561.21 L0 590.03 A5.24051 5.24051 -180 0 0 5.24
							 595.28 Z" class="st2"/>
			</g>
			<path d="M5.24 595.28 L47.17 595.28 A5.24051 5.24051 -180 0 0 52.41 590.03 L52.41 561.21 A5.24051 5.24051 -180 0 0 47.17
						 555.97 L5.24 555.97 A5.24051 5.24051 -180 0 0 0 561.21 L0 590.03 A5.24051 5.24051 -180 0 0 5.24 595.28 Z"
					class="st3"/>
			<text x="16.38" y="578.62" class="st4" v:langID="1033"><v:paragraph v:horizAlign="1"/><v:tabList/>Auth</text>		</g>
		<g id="shape3-13" v:mID="3" v:groupContext="shape" transform="translate(87.0252,-435.707)">
			<title>Скругленный прямоугольник.3</title>
			<desc>Модуль второй страници</desc>
			<v:userDefs>
				<v:ud v:nameU="CTypeTopLeftSnip" v:prompt="" v:val="VT0(0):5"/>
				<v:ud v:nameU="CTypeTopRightSnip" v:prompt="" v:val="VT0(0):5"/>
				<v:ud v:nameU="CTypeBotLeftSnip" v:prompt="" v:val="VT0(0):5"/>
				<v:ud v:nameU="CTypeBotRightSnip" v:prompt="" v:val="VT0(0):5"/>
				<v:ud v:nameU="CornerLockHoriz" v:prompt="" v:val="VT0(1):5"/>
				<v:ud v:nameU="CornerLockVert" v:prompt="" v:val="VT0(1):5"/>
				<v:ud v:nameU="CornerLockDiag" v:prompt="" v:val="VT0(0):5"/>
				<v:ud v:nameU="TopLeftOffset" v:prompt="" v:val="VT0(0.15748031496063):24"/>
				<v:ud v:nameU="TopRightOffset" v:prompt="" v:val="VT0(0.15748031496063):24"/>
				<v:ud v:nameU="BotLeftOffset" v:prompt="" v:val="VT0(0.15748031496063):24"/>
				<v:ud v:nameU="BotRightOffset" v:prompt="" v:val="VT0(0.15748031496063):24"/>
				<v:ud v:nameU="visVersion" v:prompt="" v:val="VT0(15):26"/>
				<v:ud v:nameU="TopLeftOffset" v:prompt="" v:val="VT0(0.072786090334285):1"/>
				<v:ud v:nameU="TopRightOffset" v:prompt="" v:val="VT0(0.072786090334285):1"/>
				<v:ud v:nameU="BotLeftOffset" v:prompt="" v:val="VT0(0.072786090334285):1"/>
				<v:ud v:nameU="BotRightOffset" v:prompt="" v:val="VT0(0.072786090334285):1"/>
			</v:userDefs>
			<v:textBlock v:margins="rect(4,4,4,4)" v:tabSpace="42.5197"/>
			<v:textRect cx="26.203" cy="575.623" width="52.41" height="39.3045"/>
			<g id="shadow3-14" v:groupContext="shadow" v:shadowOffsetX="0.345598" v:shadowOffsetY="-1.97279" v:shadowType="1"
					transform="matrix(1,0,0,1,0.345598,1.97279)" class="st1">
				<path d="M5.24 595.28 L47.17 595.28 A5.24051 5.24051 -180 0 0 52.41 590.03 L52.41 561.21 A5.24051 5.24051 -180 0
							 0 47.17 555.97 L5.24 555.97 A5.24051 5.24051 -180 0 0 0 561.21 L0 590.03 A5.24051 5.24051 -180 0 0 5.24
							 595.28 Z" class="st2"/>
			</g>
			<path d="M5.24 595.28 L47.17 595.28 A5.24051 5.24051 -180 0 0 52.41 590.03 L52.41 561.21 A5.24051 5.24051 -180 0 0 47.17
						 555.97 L5.24 555.97 A5.24051 5.24051 -180 0 0 0 561.21 L0 590.03 A5.24051 5.24051 -180 0 0 5.24 595.28 Z"
					class="st3"/>
			<text x="9.34" y="566.62" class="st4" v:langID="1049"><v:paragraph v:horizAlign="1"/><v:tabList/>Модуль <tspan
						x="11.27" dy="1.2em" class="st5">второй </tspan><tspan x="6.34" dy="1.2em" class="st5">страници</tspan></text>		</g>
		<g id="shape5-21" v:mID="5" v:groupContext="shape" transform="translate(162.033,-392.545)">
			<title>Прямоугольник.5</title>
			<desc>Верхний навбар</desc>
			<v:userDefs>
				<v:ud v:nameU="visVersion" v:val="VT0(15):26"/>
			</v:userDefs>
			<v:textBlock v:margins="rect(4,4,4,4)" v:tabSpace="42.5197"/>
			<v:textRect cx="26.203" cy="575.623" width="52.41" height="39.3045"/>
			<g id="shadow5-22" v:groupContext="shadow" v:shadowOffsetX="0.345598" v:shadowOffsetY="-1.97279" v:shadowType="1"
					transform="matrix(1,0,0,1,0.345598,1.97279)" class="st1">
				<rect x="0" y="555.971" width="52.406" height="39.3045" class="st2"/>
			</g>
			<rect x="0" y="555.971" width="52.406" height="39.3045" class="st3"/>
			<text x="8.12" y="572.62" class="st4" v:langID="1049"><v:paragraph v:horizAlign="1"/><v:tabList/>Верхний <tspan
						x="11.05" dy="1.2em" class="st5">навбар</tspan></text>		</g>
		<g id="shape6-28" v:mID="6" v:groupContext="shape" transform="translate(162.033,-349.212)">
			<title>Прямоугольник.6</title>
			<desc>Левый навбар</desc>
			<v:userDefs>
				<v:ud v:nameU="visVersion" v:val="VT0(15):26"/>
			</v:userDefs>
			<v:textBlock v:margins="rect(4,4,4,4)" v:tabSpace="42.5197"/>
			<v:textRect cx="26.203" cy="575.623" width="52.41" height="39.3045"/>
			<g id="shadow6-29" v:groupContext="shadow" v:shadowOffsetX="0.345598" v:shadowOffsetY="-1.97279" v:shadowType="1"
					transform="matrix(1,0,0,1,0.345598,1.97279)" class="st1">
				<rect x="0" y="555.971" width="52.406" height="39.3045" class="st2"/>
			</g>
			<rect x="0" y="555.971" width="52.406" height="39.3045" class="st3"/>
			<text x="12.23" y="572.62" class="st4" v:langID="1049"><v:paragraph v:horizAlign="1"/><v:tabList/>Левый <tspan
						x="11.05" dy="1.2em" class="st5">навбар</tspan></text>		</g>
		<g id="shape7-35" v:mID="7" v:groupContext="shape" transform="translate(162.033,-305.88)">
			<title>Прямоугольник.7</title>
			<desc>Profile</desc>
			<v:userDefs>
				<v:ud v:nameU="visVersion" v:val="VT0(15):26"/>
			</v:userDefs>
			<v:textBlock v:margins="rect(4,4,4,4)" v:tabSpace="42.5197"/>
			<v:textRect cx="26.203" cy="575.623" width="52.41" height="39.3045"/>
			<g id="shadow7-36" v:groupContext="shadow" v:shadowOffsetX="0.345598" v:shadowOffsetY="-1.97279" v:shadowType="1"
					transform="matrix(1,0,0,1,0.345598,1.97279)" class="st1">
				<rect x="0" y="555.971" width="52.406" height="39.3045" class="st2"/>
			</g>
			<rect x="0" y="555.971" width="52.406" height="39.3045" class="st3"/>
			<text x="12.93" y="578.62" class="st4" v:langID="1033"><v:paragraph v:horizAlign="1"/><v:tabList/>Profile</text>		</g>
		<g id="shape8-41" v:mID="8" v:groupContext="shape" transform="translate(158.74,-78.3496)">
			<title>Прямоугольник.8</title>
			<desc>Add new employee</desc>
			<v:userDefs>
				<v:ud v:nameU="visVersion" v:val="VT0(15):26"/>
			</v:userDefs>
			<v:textBlock v:margins="rect(4,4,4,4)" v:tabSpace="42.5197"/>
			<v:textRect cx="26.203" cy="575.623" width="52.41" height="39.3045"/>
			<g id="shadow8-42" v:groupContext="shadow" v:shadowOffsetX="0.345598" v:shadowOffsetY="-1.97279" v:shadowType="1"
					transform="matrix(1,0,0,1,0.345598,1.97279)" class="st1">
				<rect x="0" y="555.971" width="52.406" height="39.3045" class="st2"/>
			</g>
			<rect x="0" y="555.971" width="52.406" height="39.3045" class="st3"/>
			<text x="8.24" y="572.62" class="st4" v:langID="1033"><v:paragraph v:horizAlign="1"/><v:tabList/>Add new <tspan
						x="6.07" dy="1.2em" class="st5">employee</tspan></text>		</g>
		<g id="shape9-48" v:mID="9" v:groupContext="shape" transform="translate(158.74,-30.3411)">
			<title>Прямоугольник.9</title>
			<desc>Vacation Requests</desc>
			<v:userDefs>
				<v:ud v:nameU="visVersion" v:val="VT0(15):26"/>
			</v:userDefs>
			<v:textBlock v:margins="rect(4,4,4,4)" v:tabSpace="42.5197"/>
			<v:textRect cx="26.203" cy="575.623" width="52.41" height="39.3045"/>
			<g id="shadow9-49" v:groupContext="shadow" v:shadowOffsetX="0.345598" v:shadowOffsetY="-1.97279" v:shadowType="1"
					transform="matrix(1,0,0,1,0.345598,1.97279)" class="st1">
				<rect x="0" y="555.971" width="52.406" height="39.3045" class="st2"/>
			</g>
			<rect x="0" y="555.971" width="52.406" height="39.3045" class="st3"/>
			<text x="8.38" y="572.62" class="st4" v:langID="1033"><v:paragraph v:horizAlign="1"/><v:tabList/>Vacation <tspan
						x="7.67" dy="1.2em" class="st5">Requests</tspan></text>		</g>
		<g id="shape10-55" v:mID="10" v:groupContext="shape" transform="translate(167.13,-8.81127)">
			<title>Круг</title>
			<v:userDefs>
				<v:ud v:nameU="visVersion" v:val="VT0(15):26"/>
			</v:userDefs>
			<g id="shadow10-56" v:groupContext="shadow" v:shadowOffsetX="0.345598" v:shadowOffsetY="-1.97279" v:shadowType="1"
					transform="matrix(1,0,0,1,0.345598,1.97279)" class="st1">
				<path d="M0 591.12 A4.15481 4.15481 0 0 1 8.31 591.12 A4.15481 4.15481 0 0 1 0 591.12 Z" class="st2"/>
			</g>
			<path d="M0 591.12 A4.15481 4.15481 0 0 1 8.31 591.12 A4.15481 4.15481 0 0 1 0 591.12 Z" class="st3"/>
		</g>
		<g id="shape11-60" v:mID="11" v:groupContext="shape" transform="translate(179.594,-8.81127)">
			<title>Круг.11</title>
			<v:userDefs>
				<v:ud v:nameU="visVersion" v:val="VT0(15):26"/>
			</v:userDefs>
			<g id="shadow11-61" v:groupContext="shadow" v:shadowOffsetX="0.345598" v:shadowOffsetY="-1.97279" v:shadowType="1"
					transform="matrix(1,0,0,1,0.345598,1.97279)" class="st1">
				<path d="M0 591.12 A4.15481 4.15481 0 0 1 8.31 591.12 A4.15481 4.15481 0 0 1 0 591.12 Z" class="st2"/>
			</g>
			<path d="M0 591.12 A4.15481 4.15481 0 0 1 8.31 591.12 A4.15481 4.15481 0 0 1 0 591.12 Z" class="st3"/>
		</g>
		<g id="shape12-65" v:mID="12" v:groupContext="shape" transform="translate(192.059,-8.81127)">
			<title>Круг.12</title>
			<v:userDefs>
				<v:ud v:nameU="visVersion" v:val="VT0(15):26"/>
			</v:userDefs>
			<g id="shadow12-66" v:groupContext="shadow" v:shadowOffsetX="0.345598" v:shadowOffsetY="-1.97279" v:shadowType="1"
					transform="matrix(1,0,0,1,0.345598,1.97279)" class="st1">
				<path d="M0 591.12 A4.15481 4.15481 0 0 1 8.31 591.12 A4.15481 4.15481 0 0 1 0 591.12 Z" class="st2"/>
			</g>
			<path d="M0 591.12 A4.15481 4.15481 0 0 1 8.31 591.12 A4.15481 4.15481 0 0 1 0 591.12 Z" class="st3"/>
		</g>
		<g id="shape13-70" v:mID="13" v:groupContext="shape" v:layerMember="0" transform="translate(44.203,-537.971)">
			<title>Динамическая соединительная линия</title>
			<path d="M0 595.28 L0 621.96 L35.78 621.96" class="st6"/>
		</g>
		<g id="shape14-76" v:mID="14" v:groupContext="shape" v:layerMember="0" transform="translate(44.203,-537.971)">
			<title>Динамическая соединительная линия.14</title>
			<path d="M0 595.28 L0 677.89 L35.78 677.89" class="st6"/>
		</g>
		<g id="shape15-81" v:mID="15" v:groupContext="shape" v:layerMember="0" transform="translate(113.228,-435.707)">
			<title>Динамическая соединительная линия.15</title>
			<path d="M0 595.28 L0 618.79 L41.77 618.79" class="st6"/>
		</g>
		<g id="shape16-86" v:mID="16" v:groupContext="shape" v:layerMember="0" transform="translate(113.228,-435.707)">
			<title>Динамическая соединительная линия.16</title>
			<path d="M0 595.28 L0 662.12 L41.77 662.12" class="st6"/>
		</g>
		<g id="shape17-91" v:mID="17" v:groupContext="shape" v:layerMember="0" transform="translate(113.228,-435.707)">
			<title>Динамическая соединительная линия.17</title>
			<path d="M0 595.28 L0 705.45 L41.77 705.45" class="st6"/>
		</g>
		<g id="shape18-96" v:mID="18" v:groupContext="shape" transform="translate(231.059,-262.547)">
			<title>Прямоугольник.18</title>
			<desc>My profile</desc>
			<v:userDefs>
				<v:ud v:nameU="visVersion" v:val="VT0(15):26"/>
			</v:userDefs>
			<v:textBlock v:margins="rect(4,4,4,4)" v:tabSpace="42.5197"/>
			<v:textRect cx="26.203" cy="575.623" width="52.41" height="39.3045"/>
			<g id="shadow18-97" v:groupContext="shadow" v:shadowOffsetX="0.345598" v:shadowOffsetY="-1.97279" v:shadowType="1"
					transform="matrix(1,0,0,1,0.345598,1.97279)" class="st1">
				<rect x="0" y="555.971" width="52.406" height="39.3045" class="st2"/>
			</g>
			<rect x="0" y="555.971" width="52.406" height="39.3045" class="st3"/>
			<text x="5.22" y="578.62" class="st4" v:langID="1033"><v:paragraph v:horizAlign="1"/><v:tabList/>My profile</text>		</g>
		<g id="shape19-102" v:mID="19" v:groupContext="shape" transform="translate(231.059,-217.151)">
			<title>Прямоугольник.19</title>
			<desc>Vacation</desc>
			<v:userDefs>
				<v:ud v:nameU="visVersion" v:val="VT0(15):26"/>
			</v:userDefs>
			<v:textBlock v:margins="rect(4,4,4,4)" v:tabSpace="42.5197"/>
			<v:textRect cx="26.203" cy="575.623" width="52.41" height="39.3045"/>
			<g id="shadow19-103" v:groupContext="shadow" v:shadowOffsetX="0.345598" v:shadowOffsetY="-1.97279" v:shadowType="1"
					transform="matrix(1,0,0,1,0.345598,1.97279)" class="st1">
				<rect x="0" y="555.971" width="52.406" height="39.3045" class="st2"/>
			</g>
			<rect x="0" y="555.971" width="52.406" height="39.3045" class="st3"/>
			<text x="8.38" y="578.62" class="st4" v:langID="1033"><v:paragraph v:horizAlign="1"/><v:tabList/>Vacation</text>		</g>
		<g id="shape20-108" v:mID="20" v:groupContext="shape" transform="translate(231.059,-171.754)">
			<title>Прямоугольник.20</title>
			<desc>My vacations</desc>
			<v:userDefs>
				<v:ud v:nameU="visVersion" v:val="VT0(15):26"/>
			</v:userDefs>
			<v:textBlock v:margins="rect(4,4,4,4)" v:tabSpace="42.5197"/>
			<v:textRect cx="26.203" cy="575.623" width="52.41" height="39.3045"/>
			<g id="shadow20-109" v:groupContext="shadow" v:shadowOffsetX="0.345598" v:shadowOffsetY="-1.97279" v:shadowType="1"
					transform="matrix(1,0,0,1,0.345598,1.97279)" class="st1">
				<rect x="0" y="555.971" width="52.406" height="39.3045" class="st2"/>
			</g>
			<rect x="0" y="555.971" width="52.406" height="39.3045" class="st3"/>
			<text x="19.66" y="572.62" class="st4" v:langID="1033"><v:paragraph v:horizAlign="1"/><v:tabList/>My <tspan x="7"
						dy="1.2em" class="st5">vacations</tspan></text>		</g>
		<g id="shape22-115" v:mID="22" v:groupContext="shape" v:layerMember="0" transform="translate(188.236,-305.88)">
			<title>Динамическая соединительная линия.22</title>
			<path d="M0 595.28 L0 618.96 L35.78 618.96" class="st6"/>
		</g>
		<g id="shape23-120" v:mID="23" v:groupContext="shape" v:layerMember="0" transform="translate(188.236,-305.88)">
			<title>Динамическая соединительная линия.23</title>
			<path d="M0 595.28 L0 664.35 L35.78 664.35" class="st6"/>
		</g>
		<g id="shape24-125" v:mID="24" v:groupContext="shape" v:layerMember="0" transform="translate(188.236,-305.88)">
			<title>Динамическая соединительная линия.24</title>
			<path d="M0 595.28 L0 709.75 L35.78 709.75" class="st6"/>
		</g>
		<g id="shape25-130" v:mID="25" v:groupContext="shape" v:layerMember="0" transform="translate(113.228,-435.707)">
			<title>Динамическая соединительная линия.25</title>
			<path d="M0 595.28 L0 932.98 L38.47 932.98" class="st6"/>
		</g>
		<g id="shape26-135" v:mID="26" v:groupContext="shape" v:layerMember="0" transform="translate(113.228,-435.707)">
			<title>Динамическая соединительная линия.26</title>
			<path d="M0 595.28 L0 980.99 L38.47 980.99" class="st6"/>
		</g>
		<g id="shape27-140" v:mID="27" v:groupContext="shape" transform="translate(158.74,-126.358)">
			<title>Прямоугольник.27</title>
			<desc>Edit profile</desc>
			<v:userDefs>
				<v:ud v:nameU="visVersion" v:val="VT0(15):26"/>
			</v:userDefs>
			<v:textBlock v:margins="rect(4,4,4,4)" v:tabSpace="42.5197"/>
			<v:textRect cx="26.203" cy="575.623" width="52.41" height="39.3045"/>
			<g id="shadow27-141" v:groupContext="shadow" v:shadowOffsetX="0.345598" v:shadowOffsetY="-1.97279" v:shadowType="1"
					transform="matrix(1,0,0,1,0.345598,1.97279)" class="st1">
				<rect x="0" y="555.971" width="52.406" height="39.3045" class="st2"/>
			</g>
			<rect x="0" y="555.971" width="52.406" height="39.3045" class="st3"/>
			<text x="18.31" y="572.62" class="st4" v:langID="1033"><v:paragraph v:horizAlign="1"/><v:tabList/>Edit <tspan x="12.89"
						dy="1.2em" class="st5">profile</tspan></text>		</g>
		<g id="shape28-147" v:mID="28" v:groupContext="shape" v:layerMember="0" transform="translate(113.228,-435.707)">
			<title>Динамическая соединительная линия.28</title>
			<path d="M0 595.28 L0 884.97 L38.47 884.97" class="st6"/>
		</g>
	</g>
</svg>
